<mxfile host="app.diagrams.net" modified="2021-08-20T13:40:19.705Z" agent="5.0 (Windows NT 10.0; Win64; x64) AppleWebKit/537.36 (KHTML, like Gecko) Chrome/92.0.4515.131 Safari/537.36" etag="hFubKzdoQ2uk1cBknRxY" version="14.9.4" type="github">
  <diagram id="NvPChnOz5gp6kX2Rmhac" name="Page-1">
    <mxGraphModel dx="929" dy="633" grid="1" gridSize="10" guides="1" tooltips="1" connect="1" arrows="1" fold="1" page="1" pageScale="1" pageWidth="850" pageHeight="1100" math="0" shadow="0">
      <root>
        <mxCell id="0" />
        <mxCell id="1" parent="0" />
        <mxCell id="QGmkmGnSFJE9spn63MvY-1" value="" style="rounded=0;whiteSpace=wrap;html=1;" vertex="1" parent="1">
          <mxGeometry x="160" y="290" width="280" height="270" as="geometry" />
        </mxCell>
        <mxCell id="QGmkmGnSFJE9spn63MvY-3" value="" style="endArrow=none;dashed=1;html=1;dashPattern=1 3;strokeWidth=2;" edge="1" parent="1">
          <mxGeometry width="50" height="50" relative="1" as="geometry">
            <mxPoint x="40" y="240" as="sourcePoint" />
            <mxPoint x="850" y="240" as="targetPoint" />
            <Array as="points">
              <mxPoint x="390" y="240" />
            </Array>
          </mxGeometry>
        </mxCell>
        <mxCell id="QGmkmGnSFJE9spn63MvY-4" value="ProvisionedCluster Custom resource" style="rounded=0;whiteSpace=wrap;html=1;" vertex="1" parent="1">
          <mxGeometry x="240" y="310" width="120" height="60" as="geometry" />
        </mxCell>
        <mxCell id="QGmkmGnSFJE9spn63MvY-6" value="" style="rounded=0;whiteSpace=wrap;html=1;" vertex="1" parent="1">
          <mxGeometry x="180" y="440" width="240" height="110" as="geometry" />
        </mxCell>
        <mxCell id="QGmkmGnSFJE9spn63MvY-11" style="edgeStyle=orthogonalEdgeStyle;rounded=0;orthogonalLoop=1;jettySize=auto;html=1;exitX=0.5;exitY=0;exitDx=0;exitDy=0;entryX=0.25;entryY=1;entryDx=0;entryDy=0;" edge="1" parent="1" source="QGmkmGnSFJE9spn63MvY-7" target="QGmkmGnSFJE9spn63MvY-4">
          <mxGeometry relative="1" as="geometry" />
        </mxCell>
        <mxCell id="QGmkmGnSFJE9spn63MvY-7" value="Arc Onboarding Operator" style="rounded=0;whiteSpace=wrap;html=1;" vertex="1" parent="1">
          <mxGeometry x="190" y="450" width="90" height="60" as="geometry" />
        </mxCell>
        <mxCell id="QGmkmGnSFJE9spn63MvY-12" style="edgeStyle=orthogonalEdgeStyle;rounded=0;orthogonalLoop=1;jettySize=auto;html=1;exitX=0.5;exitY=0;exitDx=0;exitDy=0;entryX=0.75;entryY=1;entryDx=0;entryDy=0;" edge="1" parent="1" source="QGmkmGnSFJE9spn63MvY-8" target="QGmkmGnSFJE9spn63MvY-4">
          <mxGeometry relative="1" as="geometry" />
        </mxCell>
        <mxCell id="QGmkmGnSFJE9spn63MvY-8" value="LCM Operator" style="rounded=0;whiteSpace=wrap;html=1;" vertex="1" parent="1">
          <mxGeometry x="310" y="450" width="100" height="60" as="geometry" />
        </mxCell>
        <mxCell id="QGmkmGnSFJE9spn63MvY-9" value="ProvisionedCluster Extension Operator" style="text;html=1;strokeColor=none;fillColor=none;align=center;verticalAlign=middle;whiteSpace=wrap;rounded=0;" vertex="1" parent="1">
          <mxGeometry x="170" y="530" width="260" height="20" as="geometry" />
        </mxCell>
      </root>
    </mxGraphModel>
  </diagram>
</mxfile>
